<svg xmlns="http://www.w3.org/2000/svg" viewBox="0 0 104.31 10.91"><defs><style>.cls-1{fill:#4c4c4c;}.cls-2{fill:#06bec2;}</style></defs><title>Asset 1</title><g id="Layer_2" data-name="Layer 2"><g id="Layer_1-2" data-name="Layer 1"><path class="cls-1" d="M11.66,8.68H9.83L11.5.09h6.15l-.26,1.34H13.07l-.45,2.33h3.59L16,5H12.37Z"/><path class="cls-1" d="M18.9,8.68H17.18l1.25-6.4h1.72Zm1.39-7.14H18.57L18.87,0h1.72Z"/><path class="cls-1" d="M24.39,8.69c-.5.06-.84.1-1.05.1a2.37,2.37,0,0,1-1.51-.4,1.23,1.23,0,0,1-.48-1,6.69,6.69,0,0,1,.17-1.15l.56-2.83H21l.23-1.15h1.12L22.77.55,24.26.47l-.35,1.81h1.61L25.3,3.43H23.68l-.55,2.85A4.42,4.42,0,0,0,23,7c0,.41.35.61,1,.61a3.81,3.81,0,0,0,.54,0Z"/><path class="cls-1" d="M31.77,8.68H30.13l.76-3.85A3.6,3.6,0,0,0,31,4.09a.8.8,0,0,0-.23-.59.89.89,0,0,0-.7-.25,1.72,1.72,0,0,0-1.32.65,3.93,3.93,0,0,0-.8,1.9l-.57,2.88H25.71L27,2.28h1.52l-.29,1.49a3.44,3.44,0,0,1,1.29-1.39,2.63,2.63,0,0,1,1.16-.28,2.19,2.19,0,0,1,1.41.48,1.61,1.61,0,0,1,.59,1.32A6.9,6.9,0,0,1,32.5,5Z"/><path class="cls-1" d="M40.29,6.87a3.42,3.42,0,0,1-3.25,2,3.26,3.26,0,0,1-2.31-.78A2.65,2.65,0,0,1,33.89,6,3.9,3.9,0,0,1,35,3.24a3.59,3.59,0,0,1,2.72-1.13,3,3,0,0,1,2.26.82,3.1,3.1,0,0,1,.77,2.21c0,.16,0,.32,0,.51H35.56a2.15,2.15,0,0,0-.05.47,1.66,1.66,0,0,0,.4,1.17,1.51,1.51,0,0,0,1.16.44,1.89,1.89,0,0,0,1.75-1.19ZM39.15,4.73q0-1.62-1.47-1.62a1.9,1.9,0,0,0-2,1.62Z"/><path class="cls-1" d="M42.51,6.8a1.74,1.74,0,0,0,1.76,1,2,2,0,0,0,1-.23.7.7,0,0,0,.39-.6.49.49,0,0,0-.26-.43,3.17,3.17,0,0,0-.88-.31,11.13,11.13,0,0,1-1.49-.44,2,2,0,0,1-.81-.62,1.46,1.46,0,0,1-.33-1,1.81,1.81,0,0,1,.74-1.45,3.11,3.11,0,0,1,2.08-.62,3.27,3.27,0,0,1,3.08,1.51L46.43,4a1.73,1.73,0,0,0-1.62-.84,1.76,1.76,0,0,0-.86.2.63.63,0,0,0-.35.54.54.54,0,0,0,.17.4,1.77,1.77,0,0,0,.69.28,16.59,16.59,0,0,1,1.77.53,2.15,2.15,0,0,1,.9.63,1.44,1.44,0,0,1,.34,1,1.85,1.85,0,0,1-.81,1.52,4,4,0,0,1-2.4.61c-1.7,0-2.8-.57-3.32-1.7Z"/><path class="cls-1" d="M49.38,6.8a1.74,1.74,0,0,0,1.76,1,2,2,0,0,0,1-.23.7.7,0,0,0,.39-.6.49.49,0,0,0-.26-.43,3.3,3.3,0,0,0-.88-.31A11.13,11.13,0,0,1,50,5.74a2,2,0,0,1-.81-.62,1.46,1.46,0,0,1-.33-1,1.81,1.81,0,0,1,.74-1.45,3.12,3.12,0,0,1,2.09-.62,3.26,3.26,0,0,1,3.07,1.51L53.3,4a1.73,1.73,0,0,0-1.62-.84,1.76,1.76,0,0,0-.86.2.63.63,0,0,0-.35.54.54.54,0,0,0,.17.4,1.77,1.77,0,0,0,.69.28,15.89,15.89,0,0,1,1.77.53,2.15,2.15,0,0,1,.9.63,1.49,1.49,0,0,1,.34,1,1.85,1.85,0,0,1-.81,1.52,4,4,0,0,1-2.4.61c-1.7,0-2.8-.57-3.32-1.7Z"/><path class="cls-1" d="M61.92,8.68H55.43L57.1.09h6.32l-.27,1.34H58.63L58.2,3.66H62L61.7,4.93H58l-.47,2.4h4.71Z"/><path class="cls-1" d="M69.37,8.68H67.5L66.17,6.22,63.92,8.68H62.3l3.24-3.39-1.75-3h1.9l1,2,1.8-2h1.61L67.37,5.16Z"/><path class="cls-1" d="M71.44,10.91H69.8l1.68-8.63H73L72.69,3.6A2.71,2.71,0,0,1,75,2.06a2.19,2.19,0,0,1,1.7.73,2.84,2.84,0,0,1,.66,2,4.84,4.84,0,0,1-.89,2.82,2.65,2.65,0,0,1-2.3,1.28,2.06,2.06,0,0,1-2.08-1.31Zm2.42-3.2a1.44,1.44,0,0,0,1.32-.93,4.21,4.21,0,0,0,.47-1.91q0-1.65-1.17-1.65a1.76,1.76,0,0,0-1.49.9,3.6,3.6,0,0,0-.59,2,1.56,1.56,0,0,0,.43,1.2A1.43,1.43,0,0,0,73.86,7.71Z"/><path class="cls-1" d="M79.8,8.68H78.16l1.25-6.4h1.51L80.58,4A2.89,2.89,0,0,1,83.16,2.1h.19l-.21,1.57h-.36A2.41,2.41,0,0,0,81.63,4a2.09,2.09,0,0,0-.84.74,4.27,4.27,0,0,0-.51,1.54Z"/><path class="cls-1" d="M89.89,6.87a3.43,3.43,0,0,1-3.25,2,3.26,3.26,0,0,1-2.31-.78A2.65,2.65,0,0,1,83.49,6a3.9,3.9,0,0,1,1.06-2.76,3.58,3.58,0,0,1,2.72-1.13,3,3,0,0,1,2.26.82,3.1,3.1,0,0,1,.77,2.21c0,.16,0,.32,0,.51H85.16a2.15,2.15,0,0,0,0,.47,1.66,1.66,0,0,0,.4,1.17,1.51,1.51,0,0,0,1.16.44,1.89,1.89,0,0,0,1.75-1.19ZM88.75,4.73q0-1.62-1.47-1.62a1.9,1.9,0,0,0-2,1.62Z"/><path class="cls-1" d="M92.11,6.8a1.73,1.73,0,0,0,1.76,1,2,2,0,0,0,1-.23.7.7,0,0,0,.39-.6.49.49,0,0,0-.26-.43,3.3,3.3,0,0,0-.88-.31,11.13,11.13,0,0,1-1.49-.44,2,2,0,0,1-.81-.62,1.46,1.46,0,0,1-.33-1,1.81,1.81,0,0,1,.74-1.45,3.09,3.09,0,0,1,2.08-.62,3.27,3.27,0,0,1,3.08,1.51L96,4a2,2,0,0,0-2.48-.64.63.63,0,0,0-.35.54.54.54,0,0,0,.17.4,1.77,1.77,0,0,0,.69.28,15.58,15.58,0,0,1,1.76.53,2.12,2.12,0,0,1,.91.63,1.49,1.49,0,0,1,.34,1,1.85,1.85,0,0,1-.81,1.52,4,4,0,0,1-2.4.61c-1.7,0-2.8-.57-3.32-1.7Z"/><path class="cls-1" d="M99,6.8a1.74,1.74,0,0,0,1.76,1,2,2,0,0,0,1.05-.23.7.7,0,0,0,.39-.6.49.49,0,0,0-.26-.43,3.3,3.3,0,0,0-.88-.31,11.13,11.13,0,0,1-1.49-.44,2,2,0,0,1-.81-.62,1.46,1.46,0,0,1-.33-1,1.81,1.81,0,0,1,.74-1.45,3.09,3.09,0,0,1,2.08-.62,3.27,3.27,0,0,1,3.08,1.51L102.9,4a2,2,0,0,0-2.48-.64.63.63,0,0,0-.35.54.54.54,0,0,0,.17.4,1.77,1.77,0,0,0,.69.28,15.58,15.58,0,0,1,1.76.53,2.12,2.12,0,0,1,.91.63,1.49,1.49,0,0,1,.34,1,1.85,1.85,0,0,1-.81,1.52,4,4,0,0,1-2.4.61c-1.7,0-2.8-.57-3.32-1.7Z"/><polygon class="cls-2" points="10.63 2.18 0 2.18 0.41 0.09 11.03 0.09 10.63 2.18"/><polygon class="cls-2" points="10.09 5.44 2.44 5.44 2.85 3.33 10.5 3.33 10.09 5.44"/><polygon class="cls-2" points="9.41 8.68 5.69 8.68 6.15 6.29 9.87 6.29 9.41 8.68"/></g></g></svg>